<?xml version="1.0" encoding="UTF-8"?>
<svg width="991px" height="1220px" viewBox="0 0 991 1220" version="1.1" xmlns="http://www.w3.org/2000/svg" xmlns:xlink="http://www.w3.org/1999/xlink">
    <!-- Generator: Sketch 52.6 (67491) - http://www.bohemiancoding.com/sketch -->
    <title>1</title>
    <desc>Created with Sketch.</desc>
    <g id="1" stroke="none" stroke-width="1" fill="none" fill-rule="evenodd">
        <path d="M717.478148,974 L863.478148,801" id="Line-Copy" stroke-opacity="0.904296875" stroke="#000000" stroke-width="8" stroke-linecap="square" fill-rule="nonzero" transform="translate(790.500000, 887.000000) scale(-1, 1) translate(-790.500000, -887.000000) "></path>
        <path d="M865,534 L719,648 L865,534 Z" id="Line-Copy-4" stroke-opacity="0.904296875" stroke="#000000" stroke-width="8" stroke-linecap="square" fill-rule="nonzero"></path>
        <path d="M571.478148,974 L717.478148,801" id="Line-Copy-3" stroke-opacity="0.904296875" stroke="#000000" stroke-width="8" stroke-linecap="square" fill-rule="nonzero"></path>
        <path d="M573,534 L719,648 L573,534 Z" id="Line-Copy-5" stroke-opacity="0.904296875" stroke="#000000" stroke-width="8" stroke-linecap="square" fill-rule="nonzero"></path>
        <path d="M718.5,800.5 L718.5,490" id="Line-Copy-2" stroke-opacity="0.904296875" stroke="#000000" stroke-width="8" stroke-linecap="square" fill-rule="nonzero" transform="translate(718.000000, 645.500000) scale(-1, 1) translate(-718.000000, -645.500000) "></path>
        <path d="M484,1125.5 L84,1125.5" id="Line-Copy-6" stroke-opacity="0.904296875" stroke="#000000" stroke-width="8" stroke-linecap="square" fill-rule="nonzero" transform="translate(284.000000, 1125.500000) scale(-1, 1) translate(-284.000000, -1125.500000) "></path>
        <path d="M719,53.5 L284,53.5" id="Line-Copy-8" stroke-opacity="0.904296875" stroke="#000000" stroke-width="8" stroke-linecap="square" fill-rule="nonzero" transform="translate(501.500000, 54.000000) scale(-1, 1) translate(-501.500000, -54.000000) "></path>
        <path d="M284,1125.5 L284,53" id="Line-Copy-7" stroke-opacity="0.904296875" stroke="#000000" stroke-width="8" stroke-linecap="square" fill-rule="nonzero" transform="translate(284.000000, 589.000000) scale(-1, 1) translate(-284.000000, -589.000000) "></path>
        <path d="M717,287 L712,55" id="Line-Copy-9" stroke-opacity="0.904296875" stroke="#000000" stroke-width="8" stroke-linecap="square" fill-rule="nonzero" transform="translate(715.000000, 171.000000) scale(-1, 1) translate(-715.000000, -171.000000) "></path>
        <ellipse id="Oval" stroke="#181818" stroke-width="8" fill-rule="nonzero" cx="713.5" cy="387.5" rx="107.5" ry="100.5"></ellipse>
        <circle id="Oval" stroke="#181818" fill="#181818" fill-rule="nonzero" cx="687.5" cy="349.5" r="7.5"></circle>
        <circle id="Oval-Copy" stroke="#181818" fill="#181818" fill-rule="nonzero" cx="744.5" cy="349.5" r="7.5"></circle>
    </g>
</svg>