<svg xmlns="http://www.w3.org/2000/svg" viewBox="0 0 1000 1000"><title>Zeichenfläche 1 Kopie 2</title><g id="Zeichnungseb._Bild" data-name="Zeichnungseb. Bild"><path d="M636.76,966.13c-13.58.12-24.52.13-35.48,1.4-6,.7-12.29-.36-18.43-.87-24.6-2-49.28-1.25-73.9-1.42-12.47-.09-24.88-1.49-37.33-1-39.95,1.49-79.9-.81-119.86-.21-16.65.25-33.33-1.22-50-.67-23.64.78-47.3,1.28-70.92,1.14-26.31-.16-52.63-.72-78.95-.74-9.83,0-19.66.12-29.48-.11-2.7-.06-7.5.76-7.33-2.73.19-3.92,4.55-1.38,7-1.42,8.16-.13,16.32,0,24.48.11,2.17,0,3-.94,4.1-2.71a204.6,204.6,0,0,0,14.08-28.08c1.6-3.82,3.91-5.19,8-5,13.14.57,26.28,1.42,39.45,1,48.27-1.57,96.54-3,144.86-3.07,50,0,99.92,1.12,149.87,2.8,31.12,1,62.28,1.1,93.42,1.63,2.4,0,4.25.19,6.37,2.54,8,8.84,14,19,20.35,28.9,2.21,3.48,5,4.86,9.07,4.42,9.77-1,19.64.88,29.41-.74,1.46-.25,2.75,0,3,1.74s-1.21,2.31-2.5,2.48a46.43,46.43,0,0,1-8,.63C650.13,965.78,642.15,965.8,636.76,966.13ZM155.05,959.3c1.71.09,3.16.24,4.62.24,44.63-.25,89.25,1.47,133.89-.38,30-1.24,60,1.67,90,.73,29.29-.91,58.53,1.34,87.86.43,17.71-.55,35.57.49,53.37.76,4.83.07,9.68.69,14.48.36,14.85-1,29.67,0,44.41,1.23,13.63,1.1,27-.58,41.07-1-5.74-8.36-9.88-16.93-16.06-24.16-3-3.52-5.75-7-11.31-7.07q-61.71-1.2-123.42-2.86c-43.64-1.17-87.28-1.6-130.94-1.74-56.15-.17-112.21,5.1-168.37,2-3.63-.2-5.32,1.27-6.73,4.4C163.85,941.16,159.52,949.94,155.05,959.3Z"/></g><g id="Zeichnungseb._Bild-2" data-name="Zeichnungseb. Bild"><path d="M368.61,94.84c3.43,1.32,3.08,4.2,3.06,7.08-.36,50-1.93,100-1.36,150,.16,14.18,2.53,28.23,2.78,42.33.61,34.14-.56,68.28-2.08,102.41-1,22.64-2.32,45.38-1.18,68,2.34,46.28,1.49,92.61,3.11,138.89.61,17.47-.57,35-.31,52.49.76,52.51-1.34,105-2.43,157.45-.63,30.17-.94,60.3-.6,90.46,0,4.49.66,9,1,13.45.11,1.38.07,2.9-1.65,3.11s-2.09-1.17-2.36-2.6a93,93,0,0,1-1.12-13.43c-1.74-38.5.25-77,1.11-115.44,1.46-64.81,3-129.62,1.85-194.44-.53-30.5-.47-61-1.06-91.48-.33-17.14-2.26-34.21-1.73-51.42,1.47-48.13,2.53-96.26,3.73-144.4.32-12.86-2.06-25.55-2.63-38.36-1.32-29.31-1-58.63-.37-88,.55-25.66.73-51.32,1.25-77,.07-3.55-.94-4.52-4.46-4.44-11.83.29-23.66.33-35.49.23-3.22,0-4.1,1-4.3,4.21-3.21,54.47-1.11,109-.18,163.43.54,31.82-.6,63.56-.28,95.33.19,18.48.74,37,.71,55.46-.08,49,0,98-.44,147-.22,22.81-1.58,45.6-2.56,68.39-.42,9.69-.41,19.31,2,28.79,1.13,4.44.71,9,.52,13.44-.7,16-.8,32,0,48,.32,6.3-.53,12.65-.53,19,0,31.8.7,63.61-.82,95.41-.3,6.26,1.23,12.58,1.39,18.89.38,14.33-.81,28.63-1.47,42.94-.29,6.35.11,12.65.44,19,.09,1.58.3,3.75-2,3.88s-2.22-1.95-2.29-3.61c-.47-11.34-.28-22.66.3-34,.65-12.8,1.26-25.56-.15-38.4-1-9.43.22-19,.29-28.45.12-18.31,1.42-36.63-.19-55-.53-6.1.36-12.31.4-18.46.16-25.33.51-50.66.22-76-.09-7.7-2-15.39-3.11-23.08v-8a47,47,0,0,0,1.73-14.73c-.25-30.5,2.4-60.92,2.26-91.4-.12-24.65-.78-49.27-.25-73.93.7-32.46.29-64.95-.52-97.43-.76-29.94,2.12-59.83.17-89.86-1.62-24.89-.47-50-.78-75-.33-26.64-1.23-53.27.41-79.9.3-5,1.1-10.11.31-15s.95-5.07,4.85-5c5.26,0,10.64,1,15.82-.8Z"/></g><g id="Zeichnungseb._Bild-3" data-name="Zeichnungseb. Bild"><path d="M681.61,45.84h18c8.19,1.82,16.5.84,24.75,1.07,6.6.18,7.2.57,6.62,7.15-1.13,12.91-1.81,25.8-.64,38.75.19,2,0,4,2.27,5v1c-1.38,1.82-3.28,1.94-5.37,1.83-4.65-.25-9.32-.49-14-.53-43-.38-85.94-1.38-128.92-.42-16.81.38-33.66-.94-50.47-.55-34.62.79-69.25.49-103.88,1-35.94.58-71.94-1.39-107.92-.25-3.56.11-4.68-1.2-4.44-4.68q1.5-22,.88-44c-.09-3.27,1.56-3.53,4-3.47,23,.56,46-.88,69-.66,19.48.19,39,2,58.42,1.3,41-1.42,81.94-.41,122.91-1.38,33.3-.79,66.64-.25,100-.36C675.71,46.74,678.76,47.13,681.61,45.84Zm-24.82,49.5c15.46,1.08,40,.26,64.45.69,2.14,0,5,1,4.75-3a247.83,247.83,0,0,1,.76-38.43c.26-2.6-.75-3.49-3.36-3.52-11.5-.14-23-.89-34.48-.61-39.15.94-78.31.65-117.45.93-49.79.36-99.59,1.65-149.38.37-31.5-.82-63,.49-94.48.08-4.18-.06-5,1.47-5,5.2q0,17.49-.62,35c-.13,3.35,1,3.95,4,3.77,43.12-2.71,86.25.79,129.42-.43,40.42-1.14,80.94-1.39,121.41.27C600.48,96.62,624.11,94.09,656.79,95.34Z"/></g></svg>