<svg id="Zeichnungseb._Bild" data-name="Zeichnungseb. Bild" xmlns="http://www.w3.org/2000/svg" viewBox="0 0 1000 1000"><title>Zeichenfläche 1</title><path d="M636.76,966.13c-13.58.12-24.52.13-35.48,1.4-6,.7-12.29-.36-18.43-.87-24.6-2-49.28-1.25-73.9-1.42-12.47-.09-24.88-1.49-37.33-1-39.95,1.49-79.9-.81-119.86-.21-16.65.25-33.33-1.22-50-.67-23.64.78-47.3,1.28-70.92,1.14-26.31-.16-52.63-.72-78.95-.74-9.83,0-19.66.12-29.48-.11-2.7-.06-7.5.76-7.33-2.73.19-3.92,4.55-1.38,7-1.42,8.16-.13,16.32,0,24.48.11,2.17,0,3-.94,4.1-2.71a204.6,204.6,0,0,0,14.08-28.08c1.6-3.82,3.91-5.19,8-5,13.14.57,26.28,1.42,39.45,1,48.27-1.57,96.54-3,144.86-3.07,50,0,99.92,1.12,149.87,2.8,31.12,1,62.28,1.1,93.42,1.63,2.4,0,4.25.19,6.37,2.54,8,8.84,14,19,20.35,28.9,2.21,3.48,5,4.86,9.07,4.42,9.77-1,19.64.88,29.41-.74,1.46-.25,2.75,0,3,1.74s-1.21,2.31-2.5,2.48a46.43,46.43,0,0,1-8,.63C650.13,965.78,642.15,965.8,636.76,966.13ZM155.05,959.3c1.71.09,3.16.24,4.62.24,44.63-.25,89.25,1.47,133.89-.38,30-1.24,60,1.67,90,.73,29.29-.91,58.53,1.34,87.86.43,17.71-.55,35.57.49,53.37.76,4.83.07,9.68.69,14.48.36,14.85-1,29.67,0,44.41,1.23,13.63,1.1,27-.58,41.07-1-5.74-8.36-9.88-16.93-16.06-24.16-3-3.52-5.75-7-11.31-7.07q-61.71-1.2-123.42-2.86c-43.64-1.17-87.28-1.6-130.94-1.74-56.15-.17-112.21,5.1-168.37,2-3.63-.2-5.32,1.27-6.73,4.4C163.85,941.16,159.52,949.94,155.05,959.3Z"/></svg>