<svg xmlns="http://www.w3.org/2000/svg" viewBox="0 0 1000 1000"><title>Zeichenfläche 1 Kopie 9</title><g id="Zeichnungseb._Bild" data-name="Zeichnungseb. Bild"><path d="M636.76,966.13c-13.58.12-24.52.13-35.48,1.4-6,.7-12.29-.36-18.43-.87-24.6-2-49.28-1.25-73.9-1.42-12.47-.09-24.88-1.49-37.33-1-39.95,1.49-79.9-.81-119.86-.21-16.65.25-33.33-1.22-50-.67-23.64.78-47.3,1.28-70.92,1.14-26.31-.16-52.63-.72-78.95-.74-9.83,0-19.66.12-29.48-.11-2.7-.06-7.5.76-7.33-2.73.19-3.92,4.55-1.38,7-1.42,8.16-.13,16.32,0,24.48.11,2.17,0,3-.94,4.1-2.71a204.6,204.6,0,0,0,14.08-28.08c1.6-3.82,3.91-5.19,8-5,13.14.57,26.28,1.42,39.45,1,48.27-1.57,96.54-3,144.86-3.07,50,0,99.92,1.12,149.87,2.8,31.12,1,62.28,1.1,93.42,1.63,2.4,0,4.25.19,6.37,2.54,8,8.84,14,19,20.35,28.9,2.21,3.48,5,4.86,9.07,4.42,9.77-1,19.64.88,29.41-.74,1.46-.25,2.75,0,3,1.74s-1.21,2.31-2.5,2.48a46.43,46.43,0,0,1-8,.63C650.13,965.78,642.15,965.8,636.76,966.13ZM155.05,959.3c1.71.09,3.16.24,4.62.24,44.63-.25,89.25,1.47,133.89-.38,30-1.24,60,1.67,90,.73,29.29-.91,58.53,1.34,87.86.43,17.71-.55,35.57.49,53.37.76,4.83.07,9.68.69,14.48.36,14.85-1,29.67,0,44.41,1.23,13.63,1.1,27-.58,41.07-1-5.74-8.36-9.88-16.93-16.06-24.16-3-3.52-5.75-7-11.31-7.07q-61.71-1.2-123.42-2.86c-43.64-1.17-87.28-1.6-130.94-1.74-56.15-.17-112.21,5.1-168.37,2-3.63-.2-5.32,1.27-6.73,4.4C163.85,941.16,159.52,949.94,155.05,959.3Z"/></g><g id="Zeichnungseb._Bild-2" data-name="Zeichnungseb. Bild"><path d="M368.61,94.84c3.43,1.32,3.08,4.2,3.06,7.08-.36,50-1.93,100-1.36,150,.16,14.18,2.53,28.23,2.78,42.33.61,34.14-.56,68.28-2.08,102.41-1,22.64-2.32,45.38-1.18,68,2.34,46.28,1.49,92.61,3.11,138.89.61,17.47-.57,35-.31,52.49.76,52.51-1.34,105-2.43,157.45-.63,30.17-.94,60.3-.6,90.46,0,4.49.66,9,1,13.45.11,1.38.07,2.9-1.65,3.11s-2.09-1.17-2.36-2.6a93,93,0,0,1-1.12-13.43c-1.74-38.5.25-77,1.11-115.44,1.46-64.81,3-129.62,1.85-194.44-.53-30.5-.47-61-1.06-91.48-.33-17.14-2.26-34.21-1.73-51.42,1.47-48.13,2.53-96.26,3.73-144.4.32-12.86-2.06-25.55-2.63-38.36-1.32-29.31-1-58.63-.37-88,.55-25.66.73-51.32,1.25-77,.07-3.55-.94-4.52-4.46-4.44-11.83.29-23.66.33-35.49.23-3.22,0-4.1,1-4.3,4.21-3.21,54.47-1.11,109-.18,163.43.54,31.82-.6,63.56-.28,95.33.19,18.48.74,37,.71,55.46-.08,49,0,98-.44,147-.22,22.81-1.58,45.6-2.56,68.39-.42,9.69-.41,19.31,2,28.79,1.13,4.44.71,9,.52,13.44-.7,16-.8,32,0,48,.32,6.3-.53,12.65-.53,19,0,31.8.7,63.61-.82,95.41-.3,6.26,1.23,12.58,1.39,18.89.38,14.33-.81,28.63-1.47,42.94-.29,6.35.11,12.65.44,19,.09,1.58.3,3.75-2,3.88s-2.22-1.95-2.29-3.61c-.47-11.34-.28-22.66.3-34,.65-12.8,1.26-25.56-.15-38.4-1-9.43.22-19,.29-28.45.12-18.31,1.42-36.63-.19-55-.53-6.1.36-12.31.4-18.46.16-25.33.51-50.66.22-76-.09-7.7-2-15.39-3.11-23.08v-8a47,47,0,0,0,1.73-14.73c-.25-30.5,2.4-60.92,2.26-91.4-.12-24.65-.78-49.27-.25-73.93.7-32.46.29-64.95-.52-97.43-.76-29.94,2.12-59.83.17-89.86-1.62-24.89-.47-50-.78-75-.33-26.64-1.23-53.27.41-79.9.3-5,1.1-10.11.31-15s.95-5.07,4.85-5c5.26,0,10.64,1,15.82-.8Z"/></g><g id="Zeichnungseb._Bild-3" data-name="Zeichnungseb. Bild"><path d="M681.61,45.84h18c8.19,1.82,16.5.84,24.75,1.07,6.6.18,7.2.57,6.62,7.15-1.13,12.91-1.81,25.8-.64,38.75.19,2,0,4,2.27,5v1c-1.38,1.82-3.28,1.94-5.37,1.83-4.65-.25-9.32-.49-14-.53-43-.38-85.94-1.38-128.92-.42-16.81.38-33.66-.94-50.47-.55-34.62.79-69.25.49-103.88,1-35.94.58-71.94-1.39-107.92-.25-3.56.11-4.68-1.2-4.44-4.68q1.5-22,.88-44c-.09-3.27,1.56-3.53,4-3.47,23,.56,46-.88,69-.66,19.48.19,39,2,58.42,1.3,41-1.42,81.94-.41,122.91-1.38,33.3-.79,66.64-.25,100-.36C675.71,46.74,678.76,47.13,681.61,45.84Zm-24.82,49.5c15.46,1.08,40,.26,64.45.69,2.14,0,5,1,4.75-3a247.83,247.83,0,0,1,.76-38.43c.26-2.6-.75-3.49-3.36-3.52-11.5-.14-23-.89-34.48-.61-39.15.94-78.31.65-117.45.93-49.79.36-99.59,1.65-149.38.37-31.5-.82-63,.49-94.48.08-4.18-.06-5,1.47-5,5.2q0,17.49-.62,35c-.13,3.35,1,3.95,4,3.77,43.12-2.71,86.25.79,129.42-.43,40.42-1.14,80.94-1.39,121.41.27C600.48,96.62,624.11,94.09,656.79,95.34Z"/></g><g id="Zeichnungseb._Bild-4" data-name="Zeichnungseb. Bild"><path d="M732.61,146.84v7c-1.83,4.63-.69,9.57-1.44,14.31-.25,1.56,0,3.74-2.53,3.46-2-.23-2-2.05-1.78-3.54,1.57-11.47.59-22.91-.21-34.35-.65-9.28.75-18.64-1-27.88v-7c1-.7,1.62-2.43,3.28-1.59s1.37,2.45,1.38,4c.15,11.65.33,23.29.45,34.94A26.27,26.27,0,0,0,732.61,146.84Z"/></g><g id="Zeichnungseb._Bild-5" data-name="Zeichnungseb. Bild"><path d="M671.61,234.84c1.77-2.48,1.22-5.47,1.64-8.19,4.49-28.93,22.42-46.57,48.16-57.69,3.11-1.34,6.2-1.2,9.65-.24,3.93,1.1,8.23,1,12.38,1.11,12.65.46,23.21,5.25,31.52,14.85a30.33,30.33,0,0,0,2.67,3c25.48,22.64,22.42,66.61,1.59,89.23-6.32,6.86-12.48,13.86-18.66,20.84s-13.68,9.3-22.79,8.87c-19.46-.9-35.88-8.42-49-22.47-8.39-9-14.2-19.65-16.2-32a10.27,10.27,0,0,0-.92-2.24Zm61.78-61.43c-4.11.22-9.31-.81-13.25,1-10.16,4.55-19.9,10.14-27.18,19-9,10.93-14.06,23.34-16.25,37.43-5.63,36.22,20,64.77,52.39,70.73,13.48,2.48,24.93.17,33.29-12.07,3.82-5.58,9-10.27,13.59-15.29,19.6-21.26,22.38-62.22-.8-83-1.85-1.65-3.29-3.76-5-5.56a36.34,36.34,0,0,0-21.8-11.11C743.59,173.87,738.75,173.79,733.39,173.41Z"/></g><g id="Zeichnungseb._Bild-6" data-name="Zeichnungseb. Bild"><path d="M742.61,342.84v37a25.05,25.05,0,0,0-.85,4.85c.33,18.17-2,36.26-1.47,54.44.48,17.31.78,34.63,1.14,51.95,0,1.79.32,4.27-2.13,4.33s-2.13-2.5-2.17-4.24q-.42-18-.76-36a18,18,0,0,0-.76-6.37v-29c1.57-6,1.69-12.15,1.8-18.22.44-23.27.85-46.55.22-69.83-.2-7.31,0-14.63.07-21.94,0-1.64-.24-3.73,2.16-3.7,2.07,0,1.88,2,1.92,3.43.08,2.82.08,5.65.05,8.48C741.76,326.33,741,334.62,742.61,342.84Z"/></g><g id="Zeichnungseb._Bild-7" data-name="Zeichnungseb. Bild"><path d="M660.93,588.73c4.64,0,8.78,1.74,12.78,3.79,2.21,1.13,3.4.92,4.64-1.45,17-32.59,38.36-62.64,56.36-94.66.89-1.59,1.6-4.57,4.11-3.14,2.36,1.35.45,3.57-.47,5.21-10.91,19.44-23,38.15-34.77,57.07-8,12.84-15.08,26.21-22.5,39.38-6.1,10.83-19.73,13.43-29.2,5.46-4.71-4-4.26-7.64,1.27-10.2A18,18,0,0,1,660.93,588.73Zm12.46,8.44c-5.57-2.92-11-5.78-17.47-3.48-2.65.94-3.16,2-.76,4C660.57,602.18,666,602.15,673.39,597.17Z"/></g><g id="Zeichnungseb._Bild-8" data-name="Zeichnungseb. Bild"><path d="M805.61,601.84c-4.91,6.92-9.62,8.6-17.62,5.81-3.75-1.3-7.26-3.28-10.92-4.85a3.23,3.23,0,0,1-1.84-2.76c-3.5-17.89-11.31-34.41-16.39-51.8-4.53-15.49-9-31-16.21-45.54-1.1-2.23-2.47-4.33-3.64-6.52-.61-1.12-.67-2.32.61-3a2.09,2.09,0,0,1,2.67.67,26.54,26.54,0,0,1,3.66,5.93c8.75,17.35,13.56,36.09,19.28,54.5,4,13,10,25.41,12.6,38.89.46,2.38,1.43,3.25,4.14,2.05a26.27,26.27,0,0,1,16.62-1.44,11.26,11.26,0,0,1,7,5.09Zm-23.13-2.14c6.1,5.07,12.57,6.31,16.48,3.36,2.11-1.6,3.15-3.69-.11-4.69A20.67,20.67,0,0,0,782.48,599.7Z"/></g><g id="Zeichnungseb._Bild-9" data-name="Zeichnungseb. Bild"><path d="M673.05,426.72c6.43,2.75,11.63-1.81,17.64-6a443.22,443.22,0,0,1,42.92-27.22c.73-.39,1.43-.85,2.2-1.17,1.25-.51,2.7-1,3.5.51s-.22,2.41-1.49,3.18c-5.68,3.45-11.28,7.07-17,10.35C708,413.7,695.89,422.16,684,430.85c-1.75,1.28-2.25,3.24-3.13,5-3.76,7.55-9.8,11.5-16.75,11.15-4.77-.25-8-2.51-9.07-7.06s.76-8.18,4.57-10.75C663.21,426.73,667.38,426.6,673.05,426.72Zm-7.68,16.19c4,0,10.7-5.29,11.91-9.33.53-1.75,0-2.62-1.7-2.68-4.29-.14-8.67-.77-12.71,1.3-2.76,1.41-4.38,3.6-3.64,6.86S662.54,442.87,665.37,442.91Z"/></g><g id="Zeichnungseb._Bild-10" data-name="Zeichnungseb. Bild"><path d="M817.61,449.84c-4.06,5.94-8.89,8.32-13.57,6.69-5.44-1.9-11.56-10.33-10.79-16,.47-3.46-.81-5.14-3.27-6.9-9.92-7.06-18.19-16.05-27.67-23.63-6.49-5.2-12.76-10.67-20.12-14.66-1.45-.79-3.41-1.75-2.19-3.71s2.93-.72,4.41.11c11.07,6.28,20.41,14.83,30,23,4.8,4.11,9.44,8.4,14.28,12.45,4,3.37,7.94,6.48,13.72,7.27,6.69.91,11,6.41,15.2,11.34ZM800,438.07c-1.69-.33-2.33.45-2.59,2.1-.67,4.13,4.78,12,8.94,12.53a6.47,6.47,0,0,0,5.76-2.44c.91-1.07,1.44-2.51.43-3.66C809.15,442.68,805.47,439.06,800,438.07Z"/></g></svg>